<svg width="50" height="50" viewBox="0 0 50 50" fill="none" xmlns="http://www.w3.org/2000/svg">
<circle cx="25" cy="25" r="25" fill="#FFF1F0"/>
<path d="M20.5728 17.7173C18.2643 17.7173 16.3838 19.5978 16.3838 21.9063C16.3838 24.2196 18.2643 26.0953 20.5728 26.0953C22.8813 26.0953 24.7618 24.2196 24.7618 21.9063C24.7618 19.5978 22.8813 17.7173 20.5728 17.7173ZM20.6054 21.4221C21.9924 21.7945 22.1692 22.6416 22.1786 22.9907C22.2018 23.6469 21.7458 24.2707 21.0754 24.5079C21.0382 24.5219 20.9963 24.5266 20.9591 24.5406V25.1644H20.0282V24.5267C19.5721 24.3968 19.1067 24.0664 18.711 23.4422L19.4835 22.8791C20.0094 23.7173 20.568 23.6332 20.7868 23.554C21.0521 23.4609 21.2568 23.2282 21.2477 23.0281C21.2431 22.8326 21.0104 22.5627 20.382 22.3952C18.9951 22.0183 18.8182 21.1711 18.8089 20.8271C18.7856 20.1657 19.2417 19.5419 19.912 19.3046C19.9492 19.2953 19.9912 19.2859 20.0284 19.2768L20.0282 18.6482H20.9591V19.2905C21.4106 19.4256 21.8806 19.7466 22.2762 20.375L21.5037 20.9335C20.9778 20.0957 20.4193 20.1842 20.2005 20.2586C19.9351 20.3517 19.7305 20.5844 19.7396 20.7897C19.7444 20.9848 19.9771 21.2501 20.6054 21.4222L20.6054 21.4221Z" fill="#ED3237"/>
<path d="M26.8235 28.1572C27.3633 27.6219 27.8287 27.0168 28.2105 26.3607L29.6114 26.7376L29.7789 26.3937C30.3563 25.2016 30.696 23.9356 30.7891 22.6277L30.8124 22.2415L29.4067 21.8645C29.4021 20.3331 29.0017 18.8437 28.2476 17.522L29.2716 16.498L29.0576 16.1815C28.7039 15.6463 28.2851 15.1388 27.8103 14.6643C27.3402 14.1943 26.8283 13.7753 26.2975 13.4165L25.9811 13.207L24.9571 14.2306C23.6399 13.4772 22.1457 13.0768 20.6145 13.0722L20.2374 11.6665L19.8557 11.6943C18.5479 11.7781 17.277 12.1174 16.0856 12.6947L15.7411 12.8621L16.118 14.263C15.4618 14.6493 14.8567 15.1148 14.3167 15.6548C13.7769 16.1897 13.3114 16.7952 12.9297 17.4513L11.529 17.075L11.3615 17.4195C10.7843 18.611 10.4446 19.8818 10.3609 21.1896L10.333 21.5713L11.7387 21.9483C11.7433 23.4797 12.1389 24.9691 12.8977 26.2909L11.8738 27.3148L12.0832 27.6313C12.4369 28.1624 12.8605 28.674 13.3306 29.1492C13.8054 29.6192 14.3126 30.0377 14.8478 30.3919L15.1643 30.606L16.1882 29.582C17.5054 30.3361 18.9996 30.7358 20.5308 30.741L20.9077 32.1467L21.294 32.1228C22.6018 32.0297 23.8727 31.69 25.0596 31.1128L25.4041 30.9453L25.0271 29.5444C25.6831 29.1627 26.2882 28.6972 26.8235 28.1572L26.8235 28.1572ZM20.5493 27.9338C17.2074 27.9338 14.4985 25.2249 14.4985 21.883C14.4985 18.5412 17.2074 15.8322 20.5493 15.8322C23.8911 15.8322 26.6001 18.5412 26.6001 21.883C26.6001 25.2249 23.8911 27.9338 20.5493 27.9338Z" fill="#ED3237"/>
<path d="M38.1803 33.0538C38.1803 32.6255 38.1292 32.1972 38.0313 31.7831L38.7993 31.3364L38.6736 30.9738C38.4082 30.2013 37.9987 29.4933 37.4634 28.8741L37.2122 28.5855L36.4349 29.0322C35.8111 28.4406 35.0618 28.0082 34.2427 27.7616V26.8772L33.8658 26.8028C33.0885 26.6445 32.2135 26.6445 31.4361 26.8028L31.0592 26.8772V27.7611C30.2401 28.0078 29.4906 28.4406 28.867 29.0318L28.0945 28.585L27.8431 28.8732C27.3033 29.4877 26.8934 30.1956 26.6283 30.973L26.498 31.3356L27.2706 31.7823C27.1729 32.197 27.1216 32.6253 27.1216 33.0529C27.1216 33.4808 27.1727 33.9095 27.2706 34.3236L26.498 34.7703L26.6283 35.1329C26.8937 35.9102 27.3033 36.6178 27.8431 37.2326L28.0945 37.5208L28.867 37.0741C29.4908 37.6657 30.2401 38.0981 31.0592 38.3447V39.2286L31.4361 39.303C31.8224 39.3839 32.2319 39.4258 32.6508 39.4258C33.0697 39.4258 33.4793 39.3834 33.8656 39.3043L34.2425 39.2299L34.2427 38.346C35.0618 38.0993 35.8113 37.6665 36.4349 37.0753L37.2122 37.5221L37.4636 37.2339C37.9989 36.6149 38.4085 35.9069 38.6738 35.1342L38.7995 34.7716L38.0315 34.3248C38.1291 33.9103 38.1803 33.482 38.1803 33.0538L38.1803 33.0538ZM32.6508 36.3119C30.8543 36.3119 29.3927 34.8503 29.3927 33.0538C29.3927 31.2573 30.8543 29.7957 32.6508 29.7957C34.4473 29.7957 35.9089 31.2573 35.9089 33.0538C35.9089 34.8503 34.4473 36.3119 32.6508 36.3119Z" fill="#ED3237"/>
<path d="M34.9782 23.2793V23.7448H35.9091V23.2793C35.9091 21.9948 36.9518 20.9521 38.2363 20.9521H38.7018V20.0212H38.2363C36.9518 20.0212 35.9091 18.9785 35.9091 17.694V17.2285H34.9782V17.694C34.9782 18.9785 33.9355 20.0212 32.651 20.0212H32.1855V20.9521H32.651C33.9355 20.9521 34.9782 21.9948 34.9782 23.2793Z" fill="#ED3237"/>
</svg>
