<svg width="34" height="34" viewBox="0 0 34 34" fill="none" xmlns="http://www.w3.org/2000/svg">
<path d="M20.6147 11.5553L16.575 15.595L12.5353 11.5553C12.1489 11.1689 11.5166 11.1689 11.1303 11.5553C10.7439 11.9416 10.7439 12.5739 11.1303 12.9603L15.17 17L11.1303 21.0397C10.7439 21.4261 10.7439 22.0584 11.1303 22.4447C11.5166 22.8311 12.1489 22.8311 12.5353 22.4447L16.575 18.405L20.6147 22.4447C21.0011 22.8311 21.6334 22.8311 22.0197 22.4447C22.4061 22.0584 22.4061 21.4261 22.0197 21.0397L17.98 17L22.0197 12.9603C22.4061 12.5739 22.4061 11.9416 22.0197 11.5553C21.6334 11.1689 21.0011 11.1689 20.6147 11.5553Z" fill="#272525"/>
</svg>
