<?xml version="1.0" encoding="UTF-8"?>
<!DOCTYPE svg PUBLIC "-//W3C//DTD SVG 1.1//EN" "http://www.w3.org/Graphics/SVG/1.1/DTD/svg11.dtd">
<svg xmlns="http://www.w3.org/2000/svg" version="1.1" width="304px" height="166px" style="shape-rendering:geometricPrecision; text-rendering:geometricPrecision; image-rendering:optimizeQuality; fill-rule:evenodd; clip-rule:evenodd" xmlns:xlink="http://www.w3.org/1999/xlink">
<g><path style="opacity:1" fill="#fefefe" d="M -0.5,-0.5 C 100.833,-0.5 202.167,-0.5 303.5,-0.5C 303.5,54.8333 303.5,110.167 303.5,165.5C 202.167,165.5 100.833,165.5 -0.5,165.5C -0.5,110.167 -0.5,54.8333 -0.5,-0.5 Z"/></g>
<g><path style="opacity:1" fill="#1c5496" d="M 174.5,53.5 C 179.611,56.1053 184.611,58.9387 189.5,62C 184.833,62.6667 180.167,62.6667 175.5,62C 174.556,59.2809 174.223,56.4475 174.5,53.5 Z"/></g>
<g><path style="opacity:1" fill="#37b0a5" d="M 167.5,60.5 C 168.675,60.281 169.675,60.6143 170.5,61.5C 162.183,63.9893 155.183,68.4893 149.5,75C 148.668,75.6877 148.002,75.521 147.5,74.5C 152.831,67.8419 159.498,63.1752 167.5,60.5 Z"/></g>
<g><path style="opacity:1" fill="#0e5194" d="M 86.5,82.5 C 91.5111,82.3341 96.5111,82.5007 101.5,83C 100.335,84.0836 99.0016,84.9169 97.5,85.5C 96.5008,99.4841 96.1674,113.484 96.5,127.5C 102.537,127.829 108.537,127.496 114.5,126.5C 115.701,124.091 117.367,122.091 119.5,120.5C 119.833,120.833 120.167,121.167 120.5,121.5C 119.067,124.333 118.4,127.333 118.5,130.5C 107.147,130.832 95.8138,130.499 84.5,129.5C 86.6317,128.402 88.7984,127.402 91,126.5C 91.4999,112.837 91.6666,99.1707 91.5,85.5C 88.9664,85.7409 87.2998,84.7409 86.5,82.5 Z"/></g>
<g><path style="opacity:1" fill="#095093" d="M 174.5,82.5 C 179.844,82.334 185.177,82.5006 190.5,83C 189.109,84.02 187.609,84.8534 186,85.5C 185.167,99.5119 185.334,113.512 186.5,127.5C 187.931,127.977 189.264,128.643 190.5,129.5C 184.833,130.833 179.167,130.833 173.5,129.5C 175.304,128.232 177.304,127.565 179.5,127.5C 179.833,113.484 179.499,99.4841 178.5,85.5C 176.517,85.1852 175.184,84.1852 174.5,82.5 Z"/></g>
<g><path style="opacity:1" fill="#125194" d="M 144.5,80.5 C 150.728,80.2127 156.728,81.2127 162.5,83.5C 164.004,86.4671 164.338,89.4671 163.5,92.5C 157.201,82.5828 148.867,80.7494 138.5,87C 129.612,94.746 127.112,104.246 131,115.5C 136.359,125.929 144.859,130.096 156.5,128C 158.949,125.595 161.283,123.095 163.5,120.5C 163.833,120.833 164.167,121.167 164.5,121.5C 163.518,124.096 162.851,126.762 162.5,129.5C 151.01,133.379 140.343,131.879 130.5,125C 117.599,104.539 122.266,89.7053 144.5,80.5 Z"/></g>
<g><path style="opacity:1" fill="#3bb1a6" d="M 194.5,65.5 C 196.435,64.291 198.435,64.4577 200.5,66C 217.473,78.7068 222.639,95.2068 216,115.5C 210.526,128.335 201.026,136.668 187.5,140.5C 186.167,139.833 186.167,139.167 187.5,138.5C 208.99,130.203 218.156,114.537 215,91.5C 212.045,79.7188 205.212,71.0521 194.5,65.5 Z"/></g>
</svg>
