<svg width="150" height="150" viewBox="0 0 150 150" fill="none" xmlns="http://www.w3.org/2000/svg">
<circle cx="75" cy="75" r="75" fill="#F2F2F2"/>
<path d="M86.673 49.2546H85.5458L85.5456 48.1272C85.5456 47.4508 85.0948 47 84.4184 47C83.742 47 83.2912 47.4508 83.2912 48.1272V49.2544H82.164C81.4876 49.2544 81.0368 49.7052 81.0368 50.3816C81.0368 51.058 81.4876 51.5088 82.164 51.5088H83.2912V52.636C83.2912 53.3124 83.742 53.7632 84.4184 53.7632C85.0948 53.7632 85.5456 53.3124 85.5456 52.636V51.509H86.6728C87.3492 51.509 87.8 51.0582 87.8 50.3818C87.8002 49.7054 87.3493 49.2546 86.673 49.2546H86.673ZM74.2729 59.4C73.0328 59.4 72.0183 60.4145 72.0183 61.6546C72.0183 62.8947 73.0328 63.9092 74.2729 63.9092C75.5129 63.9092 76.5275 62.8947 76.5275 61.6546C76.5275 60.4145 75.5129 59.4 74.2729 59.4ZM82.1636 54.8908H80.6982L80.36 53.8763C80.2474 53.5381 80.1345 53.3126 79.9092 52.9744V52.8617L79.7965 52.7491C79.12 51.96 78.2183 51.509 77.2038 51.509H71.3416C70.7781 51.509 70.1018 51.7345 69.6507 52.0727C69.5381 52.0727 69.5381 52.1854 69.4252 52.1854C68.8617 52.6364 68.4109 53.1999 68.1854 53.8763L67.8472 54.8908H66.3818C64.4654 54.8908 63 56.3562 63 58.2726V67.2909C63 69.2073 64.4654 70.6727 66.3818 70.6727H82.1637C84.0801 70.6727 85.5455 69.2073 85.5455 67.2909V58.2726C85.5453 56.3564 84.0799 54.8908 82.1635 54.8908H82.1636ZM74.2729 66.1638C71.793 66.1638 69.7639 64.1347 69.7639 61.6548C69.7639 59.1749 71.793 57.1458 74.2729 57.1458C76.7528 57.1458 78.7819 59.1749 78.7819 61.6548C78.7819 64.1347 76.7528 66.1638 74.2729 66.1638Z" fill="#A3A3A3"/>
<path d="M37.11 100.126C36.4567 100.126 35.8827 100.042 35.388 99.874C34.9027 99.6967 34.492 99.44 34.156 99.104C33.82 98.7587 33.568 98.334 33.4 97.83C33.232 97.326 33.148 96.7473 33.148 96.094V90.62C33.148 90.424 33.1947 90.2793 33.288 90.186C33.3907 90.0833 33.5353 90.032 33.722 90.032C33.9087 90.032 34.0487 90.0833 34.142 90.186C34.2447 90.2793 34.296 90.424 34.296 90.62V96.038C34.296 97.0647 34.534 97.8347 35.01 98.348C35.486 98.852 36.186 99.104 37.11 99.104C38.034 99.104 38.7293 98.852 39.196 98.348C39.6627 97.8347 39.896 97.0647 39.896 96.038V90.62C39.896 90.424 39.9473 90.2793 40.05 90.186C40.1527 90.0833 40.2973 90.032 40.484 90.032C40.6613 90.032 40.7967 90.0833 40.89 90.186C40.9927 90.2793 41.044 90.424 41.044 90.62V96.094C41.044 96.962 40.8947 97.6993 40.596 98.306C40.3067 98.9127 39.868 99.37 39.28 99.678C38.692 99.9767 37.9687 100.126 37.11 100.126ZM43.8095 102.618C43.6229 102.618 43.4829 102.567 43.3895 102.464C43.2962 102.371 43.2495 102.231 43.2495 102.044V93.672C43.2495 93.4853 43.2962 93.3453 43.3895 93.252C43.4829 93.1493 43.6182 93.098 43.7955 93.098C43.9822 93.098 44.1222 93.1493 44.2155 93.252C44.3182 93.3453 44.3695 93.4853 44.3695 93.672V95.002L44.2155 94.806C44.3649 94.274 44.6589 93.854 45.0975 93.546C45.5455 93.2287 46.0775 93.07 46.6935 93.07C47.3002 93.07 47.8275 93.2147 48.2755 93.504C48.7329 93.784 49.0829 94.19 49.3255 94.722C49.5775 95.2447 49.7035 95.87 49.7035 96.598C49.7035 97.3167 49.5775 97.942 49.3255 98.474C49.0829 98.9967 48.7375 99.4027 48.2895 99.692C47.8415 99.9813 47.3095 100.126 46.6935 100.126C46.0775 100.126 45.5502 99.972 45.1115 99.664C44.6729 99.3467 44.3742 98.9267 44.2155 98.404H44.3835V102.044C44.3835 102.231 44.3322 102.371 44.2295 102.464C44.1269 102.567 43.9869 102.618 43.8095 102.618ZM46.4555 99.216C46.8849 99.216 47.2535 99.1133 47.5615 98.908C47.8789 98.7027 48.1215 98.404 48.2895 98.012C48.4669 97.62 48.5555 97.1487 48.5555 96.598C48.5555 95.7487 48.3642 95.1 47.9815 94.652C47.6082 94.204 47.0995 93.98 46.4555 93.98C46.0355 93.98 45.6669 94.0827 45.3495 94.288C45.0322 94.484 44.7849 94.778 44.6075 95.17C44.4395 95.5527 44.3555 96.0287 44.3555 96.598C44.3555 97.438 44.5469 98.0867 44.9295 98.544C45.3122 98.992 45.8209 99.216 46.4555 99.216ZM53.4837 100.126C52.8117 100.126 52.2983 99.9207 51.9437 99.51C51.589 99.0993 51.4117 98.5113 51.4117 97.746V90.606C51.4117 90.4193 51.4583 90.2793 51.5517 90.186C51.645 90.0833 51.785 90.032 51.9717 90.032C52.149 90.032 52.289 90.0833 52.3917 90.186C52.4943 90.2793 52.5457 90.4193 52.5457 90.606V97.662C52.5457 98.166 52.6437 98.544 52.8397 98.796C53.045 99.0387 53.3437 99.16 53.7357 99.16C53.8197 99.16 53.8943 99.1553 53.9597 99.146C54.025 99.1367 54.0903 99.132 54.1557 99.132C54.2583 99.1227 54.3283 99.146 54.3657 99.202C54.4123 99.258 54.4357 99.37 54.4357 99.538C54.4357 99.706 54.3983 99.832 54.3237 99.916C54.249 100 54.1277 100.056 53.9597 100.084C53.885 100.093 53.8057 100.103 53.7217 100.112C53.6377 100.121 53.5583 100.126 53.4837 100.126ZM58.3139 100.126C57.6512 100.126 57.0772 99.9813 56.5919 99.692C56.1065 99.4027 55.7285 98.9967 55.4579 98.474C55.1965 97.942 55.0659 97.3167 55.0659 96.598C55.0659 96.0567 55.1405 95.5713 55.2899 95.142C55.4392 94.7033 55.6585 94.33 55.9479 94.022C56.2372 93.714 56.5779 93.4807 56.9699 93.322C57.3712 93.154 57.8192 93.07 58.3139 93.07C58.9765 93.07 59.5505 93.2147 60.0359 93.504C60.5212 93.7933 60.8945 94.204 61.1559 94.736C61.4265 95.2587 61.5619 95.8793 61.5619 96.598C61.5619 97.1393 61.4872 97.6247 61.3379 98.054C61.1885 98.4833 60.9692 98.8567 60.6799 99.174C60.3905 99.482 60.0452 99.72 59.6439 99.888C59.2519 100.047 58.8085 100.126 58.3139 100.126ZM58.3139 99.216C58.7339 99.216 59.1025 99.1133 59.4199 98.908C59.7372 98.7027 59.9799 98.404 60.1479 98.012C60.3252 97.62 60.4139 97.1487 60.4139 96.598C60.4139 95.7487 60.2225 95.1 59.8399 94.652C59.4665 94.204 58.9579 93.98 58.3139 93.98C57.8845 93.98 57.5112 94.0827 57.1939 94.288C56.8859 94.484 56.6432 94.778 56.4659 95.17C56.2979 95.5527 56.2139 96.0287 56.2139 96.598C56.2139 97.438 56.4052 98.0867 56.7879 98.544C57.1705 98.992 57.6792 99.216 58.3139 99.216ZM65.4072 100.126C64.9405 100.126 64.5205 100.037 64.1472 99.86C63.7832 99.6733 63.4938 99.4213 63.2792 99.104C63.0645 98.7867 62.9572 98.432 62.9572 98.04C62.9572 97.536 63.0832 97.1393 63.3352 96.85C63.5965 96.5607 64.0212 96.3553 64.6092 96.234C65.2065 96.1127 66.0185 96.052 67.0452 96.052H67.6752V96.794H67.0592C66.3032 96.794 65.7058 96.8313 65.2672 96.906C64.8378 96.9713 64.5345 97.088 64.3572 97.256C64.1892 97.424 64.1052 97.662 64.1052 97.97C64.1052 98.3527 64.2358 98.6653 64.4972 98.908C64.7678 99.1507 65.1318 99.272 65.5892 99.272C65.9625 99.272 66.2892 99.1833 66.5692 99.006C66.8585 98.8287 67.0825 98.586 67.2412 98.278C67.4092 97.97 67.4932 97.6153 67.4932 97.214V95.618C67.4932 95.0393 67.3765 94.624 67.1432 94.372C66.9098 94.1107 66.5272 93.98 65.9952 93.98C65.6685 93.98 65.3418 94.022 65.0152 94.106C64.6885 94.19 64.3432 94.3253 63.9792 94.512C63.8485 94.5773 63.7365 94.6007 63.6432 94.582C63.5498 94.554 63.4752 94.5027 63.4192 94.428C63.3632 94.3533 63.3305 94.2693 63.3212 94.176C63.3118 94.0733 63.3305 93.9753 63.3772 93.882C63.4332 93.7887 63.5172 93.714 63.6292 93.658C64.0398 93.4527 64.4458 93.3033 64.8472 93.21C65.2485 93.1167 65.6312 93.07 65.9952 93.07C66.5832 93.07 67.0685 93.168 67.4512 93.364C67.8338 93.5507 68.1185 93.84 68.3052 94.232C68.4918 94.6147 68.5852 95.1093 68.5852 95.716V99.51C68.5852 99.6967 68.5385 99.8413 68.4452 99.944C68.3612 100.047 68.2352 100.098 68.0672 100.098C67.8898 100.098 67.7545 100.047 67.6612 99.944C67.5678 99.8413 67.5212 99.6967 67.5212 99.51V98.418H67.6472C67.5725 98.7727 67.4278 99.076 67.2132 99.328C67.0078 99.58 66.7512 99.776 66.4432 99.916C66.1352 100.056 65.7898 100.126 65.4072 100.126ZM73.279 100.126C72.6723 100.126 72.1403 99.9813 71.683 99.692C71.235 99.4027 70.885 98.9967 70.633 98.474C70.3903 97.942 70.269 97.3167 70.269 96.598C70.269 95.87 70.3903 95.2447 70.633 94.722C70.885 94.19 71.235 93.784 71.683 93.504C72.1403 93.2147 72.6723 93.07 73.279 93.07C73.895 93.07 74.4223 93.224 74.861 93.532C75.2997 93.84 75.5937 94.2553 75.743 94.778H75.589V90.606C75.589 90.4193 75.6357 90.2793 75.729 90.186C75.8317 90.0833 75.9763 90.032 76.163 90.032C76.3403 90.032 76.4757 90.0833 76.569 90.186C76.6717 90.2793 76.723 90.4193 76.723 90.606V99.51C76.723 99.6967 76.6763 99.8413 76.583 99.944C76.4897 100.047 76.3497 100.098 76.163 100.098C75.9857 100.098 75.8457 100.047 75.743 99.944C75.6497 99.8413 75.603 99.6967 75.603 99.51V98.18L75.757 98.376C75.6077 98.908 75.309 99.3327 74.861 99.65C74.4223 99.9673 73.895 100.126 73.279 100.126ZM73.517 99.216C73.937 99.216 74.3057 99.1133 74.623 98.908C74.9403 98.7027 75.183 98.404 75.351 98.012C75.5283 97.62 75.617 97.1487 75.617 96.598C75.617 95.7487 75.4257 95.1 75.043 94.652C74.6697 94.204 74.161 93.98 73.517 93.98C73.0877 93.98 72.7143 94.0827 72.397 94.288C72.089 94.484 71.8463 94.778 71.669 95.17C71.501 95.5527 71.417 96.0287 71.417 96.598C71.417 97.438 71.6083 98.0867 71.991 98.544C72.3737 98.992 72.8823 99.216 73.517 99.216ZM83.0205 102.618C82.8338 102.618 82.6938 102.567 82.6005 102.464C82.5072 102.371 82.4605 102.231 82.4605 102.044V93.672C82.4605 93.4853 82.5072 93.3453 82.6005 93.252C82.6938 93.1493 82.8292 93.098 83.0065 93.098C83.1932 93.098 83.3332 93.1493 83.4265 93.252C83.5292 93.3453 83.5805 93.4853 83.5805 93.672V95.002L83.4265 94.806C83.5758 94.274 83.8698 93.854 84.3085 93.546C84.7565 93.2287 85.2885 93.07 85.9045 93.07C86.5112 93.07 87.0385 93.2147 87.4865 93.504C87.9438 93.784 88.2938 94.19 88.5365 94.722C88.7885 95.2447 88.9145 95.87 88.9145 96.598C88.9145 97.3167 88.7885 97.942 88.5365 98.474C88.2938 98.9967 87.9485 99.4027 87.5005 99.692C87.0525 99.9813 86.5205 100.126 85.9045 100.126C85.2885 100.126 84.7612 99.972 84.3225 99.664C83.8838 99.3467 83.5852 98.9267 83.4265 98.404H83.5945V102.044C83.5945 102.231 83.5432 102.371 83.4405 102.464C83.3378 102.567 83.1978 102.618 83.0205 102.618ZM85.6665 99.216C86.0958 99.216 86.4645 99.1133 86.7725 98.908C87.0898 98.7027 87.3325 98.404 87.5005 98.012C87.6778 97.62 87.7665 97.1487 87.7665 96.598C87.7665 95.7487 87.5752 95.1 87.1925 94.652C86.8192 94.204 86.3105 93.98 85.6665 93.98C85.2465 93.98 84.8778 94.0827 84.5605 94.288C84.2432 94.484 83.9958 94.778 83.8185 95.17C83.6505 95.5527 83.5665 96.0287 83.5665 96.598C83.5665 97.438 83.7578 98.0867 84.1405 98.544C84.5232 98.992 85.0318 99.216 85.6665 99.216ZM91.1826 100.098C90.9959 100.098 90.8559 100.047 90.7626 99.944C90.6693 99.8413 90.6226 99.6967 90.6226 99.51V90.606C90.6226 90.4193 90.6693 90.2793 90.7626 90.186C90.8559 90.0833 90.9959 90.032 91.1826 90.032C91.3599 90.032 91.4999 90.0833 91.6026 90.186C91.7053 90.2793 91.7566 90.4193 91.7566 90.606V94.708H91.5746C91.7706 94.1667 92.0879 93.7607 92.5266 93.49C92.9746 93.21 93.4879 93.07 94.0666 93.07C94.6079 93.07 95.0559 93.168 95.4106 93.364C95.7746 93.56 96.0453 93.8587 96.2226 94.26C96.3999 94.652 96.4886 95.1513 96.4886 95.758V99.51C96.4886 99.6967 96.4373 99.8413 96.3346 99.944C96.2413 100.047 96.1059 100.098 95.9286 100.098C95.7419 100.098 95.5973 100.047 95.4946 99.944C95.4013 99.8413 95.3546 99.6967 95.3546 99.51V95.828C95.3546 95.1933 95.2286 94.7313 94.9766 94.442C94.7339 94.1433 94.3419 93.994 93.8006 93.994C93.1753 93.994 92.6759 94.19 92.3026 94.582C91.9386 94.9647 91.7566 95.478 91.7566 96.122V99.51C91.7566 99.902 91.5653 100.098 91.1826 100.098ZM101.408 100.126C100.745 100.126 100.171 99.9813 99.6856 99.692C99.2003 99.4027 98.8223 98.9967 98.5516 98.474C98.2903 97.942 98.1596 97.3167 98.1596 96.598C98.1596 96.0567 98.2343 95.5713 98.3836 95.142C98.533 94.7033 98.7523 94.33 99.0416 94.022C99.331 93.714 99.6716 93.4807 100.064 93.322C100.465 93.154 100.913 93.07 101.408 93.07C102.07 93.07 102.644 93.2147 103.13 93.504C103.615 93.7933 103.988 94.204 104.25 94.736C104.52 95.2587 104.656 95.8793 104.656 96.598C104.656 97.1393 104.581 97.6247 104.432 98.054C104.282 98.4833 104.063 98.8567 103.774 99.174C103.484 99.482 103.139 99.72 102.738 99.888C102.346 100.047 101.902 100.126 101.408 100.126ZM101.408 99.216C101.828 99.216 102.196 99.1133 102.514 98.908C102.831 98.7027 103.074 98.404 103.242 98.012C103.419 97.62 103.508 97.1487 103.508 96.598C103.508 95.7487 103.316 95.1 102.934 94.652C102.56 94.204 102.052 93.98 101.408 93.98C100.978 93.98 100.605 94.0827 100.288 94.288C99.9796 94.484 99.737 94.778 99.5596 95.17C99.3916 95.5527 99.3076 96.0287 99.3076 96.598C99.3076 97.438 99.499 98.0867 99.8816 98.544C100.264 98.992 100.773 99.216 101.408 99.216ZM109.021 100.126C108.489 100.126 108.041 100.033 107.677 99.846C107.322 99.65 107.056 99.37 106.879 99.006C106.701 98.6327 106.613 98.18 106.613 97.648V94.078H105.675C105.516 94.078 105.395 94.0407 105.311 93.966C105.227 93.882 105.185 93.77 105.185 93.63C105.185 93.49 105.227 93.3827 105.311 93.308C105.395 93.2333 105.516 93.196 105.675 93.196H106.613V91.586C106.613 91.3993 106.664 91.2593 106.767 91.166C106.869 91.0633 107.009 91.012 107.187 91.012C107.364 91.012 107.499 91.0633 107.593 91.166C107.695 91.2593 107.747 91.3993 107.747 91.586V93.196H109.511C109.669 93.196 109.791 93.2333 109.875 93.308C109.959 93.3827 110.001 93.49 110.001 93.63C110.001 93.77 109.959 93.882 109.875 93.966C109.791 94.0407 109.669 94.078 109.511 94.078H107.747V97.536C107.747 98.068 107.859 98.474 108.083 98.754C108.307 99.0247 108.671 99.16 109.175 99.16C109.352 99.16 109.501 99.1413 109.623 99.104C109.753 99.0667 109.861 99.048 109.945 99.048C110.029 99.0387 110.099 99.0667 110.155 99.132C110.211 99.1973 110.239 99.3093 110.239 99.468C110.239 99.58 110.215 99.6827 110.169 99.776C110.131 99.8693 110.061 99.9347 109.959 99.972C109.847 100.009 109.697 100.042 109.511 100.07C109.333 100.107 109.17 100.126 109.021 100.126ZM113.945 100.126C113.282 100.126 112.708 99.9813 112.223 99.692C111.737 99.4027 111.359 98.9967 111.089 98.474C110.827 97.942 110.697 97.3167 110.697 96.598C110.697 96.0567 110.771 95.5713 110.921 95.142C111.07 94.7033 111.289 94.33 111.579 94.022C111.868 93.714 112.209 93.4807 112.601 93.322C113.002 93.154 113.45 93.07 113.945 93.07C114.607 93.07 115.181 93.2147 115.667 93.504C116.152 93.7933 116.525 94.204 116.787 94.736C117.057 95.2587 117.193 95.8793 117.193 96.598C117.193 97.1393 117.118 97.6247 116.969 98.054C116.819 98.4833 116.6 98.8567 116.311 99.174C116.021 99.482 115.676 99.72 115.275 99.888C114.883 100.047 114.439 100.126 113.945 100.126ZM113.945 99.216C114.365 99.216 114.733 99.1133 115.051 98.908C115.368 98.7027 115.611 98.404 115.779 98.012C115.956 97.62 116.045 97.1487 116.045 96.598C116.045 95.7487 115.853 95.1 115.471 94.652C115.097 94.204 114.589 93.98 113.945 93.98C113.515 93.98 113.142 94.0827 112.825 94.288C112.517 94.484 112.274 94.778 112.097 95.17C111.929 95.5527 111.845 96.0287 111.845 96.598C111.845 97.438 112.036 98.0867 112.419 98.544C112.801 98.992 113.31 99.216 113.945 99.216Z" fill="#515151"/>
</svg>
